<svg width="64" height="64" viewBox="0 0 64 64" fill="none" xmlns="http://www.w3.org/2000/svg">
  <defs>
    <linearGradient id="bg" x1="0" y1="0" x2="0" y2="64" gradientUnits="userSpaceOnUse">
      <stop offset="0" stop-color="#11151c"/>
      <stop offset="1" stop-color="#0a0c10"/>
    </linearGradient>
    <linearGradient id="flame" x1="32" y1="6" x2="32" y2="58" gradientUnits="userSpaceOnUse">
      <stop offset="0" stop-color="#6fd2ff"/>
      <stop offset="0.45" stop-color="#10a3ea"/>
      <stop offset="1" stop-color="#0577b6"/>
    </linearGradient>
    <linearGradient id="core" x1="32" y1="26" x2="32" y2="54" gradientUnits="userSpaceOnUse">
      <stop offset="0" stop-color="#ffffff"/>
      <stop offset="1" stop-color="#bfecff"/>
    </linearGradient>
  </defs>
  <rect width="64" height="64" rx="15" fill="url(#bg)"/>
  <path d="M33.4 6.2c1.1 9.8 6.6 13.6 9.9 18.2 3.3 4.6 5.2 9 5.2 14.2 0 9.4-7.4 16.6-16.5 16.6S15.5 48 15.5 38.6c0-5 2-9 5.3-12.4 1 3 3.1 4.7 5.4 4.2-2.1-5.6-.6-12.4 3-16.4-.2 4 1.6 6.7 4 7.6 1.6-6.5-.7-11.6-.3-15.4z" fill="url(#flame)"/>
  <path d="M33 28.6c.7 5.4 3.8 7.4 5.6 10.4 1.3 2.1 2 4.2 2 6.6 0 5-3.8 8.6-8.6 8.6s-8.5-3.6-8.5-8.6c0-2.7 1-5 2.9-6.9.7 1.8 2.1 2.8 3.6 2.4-1.2-3.2-.4-6.8 1.6-9 .1 2.1 1.1 3.5 2.3 3.9.6-3.4-.5-6-2.5-7.4z" fill="url(#core)"/>
</svg>
